<svg xmlns="http://www.w3.org/2000/svg" viewBox="0 0 32 32">
  <rect width="32" height="32" rx="6" fill="#24292f"/>
  <path fill="#fff" d="M16 7a9 9 0 0 0-2.84 17.54c.45.08.61-.2.61-.43v-1.5c-2.5.54-3.03-1.2-3.03-1.2-.41-1.04-1-1.32-1-1.32-.82-.56.06-.55.06-.55.9.06 1.38.93 1.38.93.8 1.38 2.1.98 2.62.75.08-.58.31-.98.57-1.2-2-.23-4.1-1-4.1-4.45 0-.98.35-1.78.93-2.41-.1-.23-.4-1.14.09-2.38 0 0 .76-.24 2.5.92a8.6 8.6 0 0 1 4.52 0c1.74-1.16 2.5-.92 2.5-.92.49 1.24.18 2.15.09 2.38.58.63.93 1.43.93 2.41 0 3.46-2.1 4.22-4.11 4.44.32.28.6.83.6 1.67v2.48c0 .24.16.52.62.43A9 9 0 0 0 16 7Z"/>
</svg>
